<svg xmlns="http://www.w3.org/2000/svg" viewBox="0 0 120 120" width="120" height="120">
  <g fill="none" stroke="currentColor" stroke-width="2.8" stroke-linecap="round" stroke-linejoin="round">
    <path d="M45 20 L72 18 L85 27 L90 43 L88 58 L74 77 L72 97 L50 98 L46 78 L33 61 L30 42 L34 27 Z"/>
  </g>
  <g fill="none" stroke="currentColor" stroke-width="2.2" stroke-linecap="round" stroke-linejoin="round">
    <path d="M60 78.8 C59.7 74.5 59.8 70 60 66"/>
    <path d="M60 66 C57.7 63.7 55 60.3 53.2 57.4"/>
    <path d="M60 66 C59.8 62.3 59.9 58.6 60 55"/>
    <path d="M60 66 C62.3 63.7 65 60.3 66.8 57.4"/>
  </g>
  <path fill="currentColor" d="M46 78 L74 77 L72 97 L50 98 Z"/>
</svg>
