<svg xmlns="http://www.w3.org/2000/svg" viewBox="0 0 120 120" width="120" height="120">
  <defs>
    <mask id="m-clover-tag-straight">
      <rect x="-20" y="-20" width="160" height="160" fill="white"/>
      <g fill="none" stroke="black" stroke-width="7.5" stroke-linecap="round">
        <path d="M48 34.5 C47.2 48.1667 46.2 61.8333 45 75.5"/>
        <path d="M64.5 34.5 C63.7 48.1667 62.7 61.8333 61.5 75.5"/>
        <path d="M34.5 47.5 C48.1667 46.9 61.8333 46.9 75.5 47.5"/>
        <path d="M34.5 62.5 C48.1667 61.9 61.8333 61.9 75.5 62.5"/>
      </g>
    </mask>
  </defs>
  <g mask="url(#m-clover-tag-straight)">
  <path fill="currentColor" d="M38 15 C51 14 62 24 62 36 C63 48 51 59 39 58 C27 58 17 48 17 36 C17 24 26 16 38 15 Z"/>
  <path fill="currentColor" d="M75 9 C88 9 99 20 99 34 C99 47 87 58 74 58 C61 58 50 46 50 33 C51 20 62 9 75 9 Z"/>
  <path fill="currentColor" d="M38 47 C50 47 61 57 61 70 C61 82 50 93 38 93 C26 93 15 82 15 70 C15 58 25 47 38 47 Z"/>
  <path fill="currentColor" d="M72 48 C84 48 95 58 95 71 C95 83 84 94 72 94 C60 94 49 83 49 71 C49 59 59 48 72 48 Z"/>
  <path fill="currentColor" d="M56 41 C63 41 68 46 68 53 C68 60 63 65 56 65 C49 65 44 60 44 53 C44 46 49 41 56 41 Z"/>
  <path fill="currentColor" d="M48 80 C47 91 48 103 52 112 C53 116 63 115 64 110 C66 99 64 88 62 80 Z"/>
  </g>
</svg>
