<svg xmlns="http://www.w3.org/2000/svg" viewBox="0 0 120 120" width="120" height="120">
  <g fill="none" stroke="currentColor" stroke-width="5.5" stroke-linecap="round" stroke-linejoin="round">
    <path d="M28 44 C30 32 44 22 60 22 C68 22 72 26 70 30 C68 34 70 38 76 38 C88 38 98 48 96 62 C93 78 76 90 56 89 C38 88 24 76 25 60 C25 54 26 48 28 44 Z"/>
    <path d="M33 64 C35 59 43 58 46 62 C48 66 43 71 37 70 C33 69 32 67 33 64 Z"/>
  </g>
  <path fill="currentColor" d="M36 42 C35 38 39 35 43 37 C45 40 42 45 38 44 Z"/>
  <path fill="currentColor" d="M48 32 C47 28 51 26 55 28 C57 31 53 35 50 34 Z"/>
  <path fill="currentColor" d="M80 44 C79 40 83 38 87 40 C88 43 85 47 81 46 Z"/>
  <path fill="currentColor" d="M86 58 C85 54 89 52 92 54 C94 57 90 61 87 60 Z"/>
  <path fill="currentColor" d="M76 72 C75 68 79 66 82 68 C84 71 80 75 77 74 Z"/>
</svg>
