<svg xmlns="http://www.w3.org/2000/svg" viewBox="0 0 120 120" width="120" height="120">
  <g fill="none" stroke="currentColor" stroke-width="5.5" stroke-linecap="round" stroke-linejoin="round">
    <path d="M8 62 C10 42 28 28 52 26 C60 25 68 26 74 28 C88 31 97 38 100 46 C102 52 96 54 91 57 C98 60 102 66 100 72 C96 85 80 95 60 96 C38 97 16 86 10 72 C9 68 8 65 8 62 Z"/>
    <path d="M77 70 C78 64 89 63 92 68 C94 74 86 79 80 77 C77 76 76 73 77 70 Z"/>
  </g>
  <path fill="currentColor" d="M44.2 34.4 C48.0 34.4 51.8 36.9 51.8 40.7 C51.8 44.4 51.4 49.0 47.6 49.0 C43.9 49.0 39.9 47.1 39.9 43.4 C39.9 39.7 40.5 34.4 44.2 34.4 Z"/>
  <path fill="currentColor" d="M69.6 33.9 C73.3 33.9 77.6 35.7 77.6 39.5 C77.6 43.2 74.1 45.8 70.4 45.8 C66.7 45.8 62.7 44.3 62.7 40.5 C62.7 36.8 65.8 33.9 69.6 33.9 Z"/>
  <path fill="currentColor" d="M26.6 50.9 C30.4 50.9 32.1 54.8 32.1 58.5 C32.1 62.3 29.1 65.8 25.3 65.8 C21.6 65.8 20.2 61.2 20.2 57.5 C20.2 53.8 22.9 50.9 26.6 50.9 Z"/>
  <path fill="currentColor" d="M50.7 55.7 C54.4 55.7 59.3 56.7 59.3 60.4 C59.3 64.2 57.0 68.0 53.3 68.0 C49.5 68.0 45.0 67.2 45.0 63.5 C45.0 59.7 46.9 55.7 50.7 55.7 Z"/>
  <path fill="currentColor" d="M33.6 72.5 C37.3 72.5 39.8 76.0 39.8 79.7 C39.8 83.4 38.1 86.8 34.4 86.8 C30.6 86.8 26.5 84.1 26.5 80.4 C26.5 76.7 29.9 72.5 33.6 72.5 Z"/>
  <path fill="currentColor" d="M60.6 76.0 C64.4 76.0 67.1 79.0 67.1 82.7 C67.1 86.5 62.9 89.6 59.2 89.6 C55.5 89.6 53.9 85.1 53.9 81.4 C53.9 77.6 56.9 76.0 60.6 76.0 Z"/>
</svg>
