<svg xmlns="http://www.w3.org/2000/svg" viewBox="0 0 120 120" width="120" height="120">
  <g fill="none" stroke="currentColor" stroke-width="5.5" stroke-linecap="round" stroke-linejoin="round">
    <path d="M12 46 C15 28 36 12 62 12 C74 12 80 19 77 26 C74 32 77 38 86 38 C102 38 112 52 110 70 C107 92 84 108 54 107 C26 106 6 88 8 64 C9 57 10 51 12 46 Z"/>
    <path d="M27 74 C29 66 41 65 45 71 C48 77 41 84 33 83 C28 82 26 79 27 74 Z"/>
  </g>
  <path fill="currentColor" d="M28.6 37.3 C32.4 37.3 35.9 40.2 35.9 44.0 C35.9 47.7 35.0 52.1 31.3 52.1 C27.5 52.1 23.8 49.8 23.8 46.1 C23.8 42.3 24.9 37.3 28.6 37.3 Z"/>
  <path fill="currentColor" d="M41.7 20.9 C45.4 20.9 49.6 22.9 49.6 26.6 C49.6 30.3 46.0 32.8 42.3 32.8 C38.6 32.8 34.7 31.1 34.7 27.4 C34.7 23.6 37.9 20.9 41.7 20.9 Z"/>
  <path fill="currentColor" d="M94.5 41.9 C98.2 41.9 100.1 45.7 100.1 49.4 C100.1 53.2 97.2 56.8 93.5 56.8 C89.7 56.8 88.2 52.3 88.2 48.6 C88.2 44.9 90.8 41.9 94.5 41.9 Z"/>
  <path fill="currentColor" d="M97.0 60.6 C100.7 60.6 105.4 62.1 105.4 65.8 C105.4 69.6 102.7 73.0 99.0 73.0 C95.2 73.0 90.9 71.9 90.9 68.1 C90.9 64.4 93.2 60.6 97.0 60.6 Z"/>
  <path fill="currentColor" d="M87.7 77.5 C91.5 77.5 93.8 81.1 93.8 84.8 C93.8 88.5 92.0 91.8 88.2 91.8 C84.5 91.8 80.5 89.0 80.5 85.3 C80.5 81.5 84.0 77.5 87.7 77.5 Z"/>
  <path fill="currentColor" d="M66.5 87.0 C70.3 87.0 73.1 89.9 73.1 93.6 C73.1 97.4 69.1 100.6 65.3 100.6 C61.6 100.6 59.9 96.2 59.9 92.5 C59.9 88.7 62.8 87.0 66.5 87.0 Z"/>
</svg>
