<svg xmlns="http://www.w3.org/2000/svg" viewBox="0 0 120 120" width="120" height="120">
  <path fill="currentColor" d="M28 110 C30 103 82 102 92 108 C94 114 38 118 28 110 Z"/>
  <g fill="none" stroke="currentColor" stroke-width="5.5" stroke-linecap="round" stroke-linejoin="round">
    <path d="M42 108 C46 88 52 68 64 52 C67 46 74 49 72 54 C63 71 57 89 56 108"/>
    <path d="M68 50 C56 34 38 28 24 34 C20 36 20 40 24 42"/>
    <path d="M69 49 C64 30 52 20 37 20 C32 20 31 25 35 28"/>
    <path d="M70 49 C74 30 86 20 100 22 C105 23 104 28 100 30"/>
    <path d="M70 51 C84 40 98 40 108 50 C110 54 107 57 103 55"/>
    <path d="M67 52 C58 54 50 60 46 68 C45 72 48 74 51 72"/>
  </g>
  <path fill="currentColor" d="M60 58 C59 54 63 52 66 54 C68 57 65 61 61 60 Z"/>
  <path fill="currentColor" d="M70 61 C69 57 73 55 76 57 C78 60 75 64 71 63 Z"/>
</svg>
