<svg xmlns="http://www.w3.org/2000/svg" viewBox="0 0 120 120" width="120" height="120">
  <defs>
    <mask id="m-quill">
      <rect x="-20" y="-20" width="160" height="160" fill="white"/>
      <path fill="none" stroke="black" stroke-width="4.5" stroke-linecap="round" d="M84 20 C68 34 52 54 42 74"/>
      
    </mask>
  </defs>
  <path fill="currentColor" mask="url(#m-quill)" d="M37 83 C34 62 44 36 64 22 C74 15 85 13 87 20 C90 32 82 56 66 72 C56 82 44 88 37 83 Z"/>
  <g fill="none" stroke="currentColor" stroke-width="5.5" stroke-linecap="round" stroke-linejoin="round">
    <path d="M42 74 C39 80 35 88 31 97"/>
  </g>
  <g fill="none" stroke="currentColor" stroke-width="5.5" stroke-linecap="round" stroke-linejoin="round">
    <path d="M16 108 C26 104 38 107 50 104"/>
  </g>
  <path fill="currentColor" d="M56 106 C55 103 58 100 61 102 C63 105 60 109 56 106 Z"/>
</svg>
