<svg xmlns="http://www.w3.org/2000/svg" viewBox="0 0 120 120" width="120" height="120">
  <g fill="none" stroke="currentColor" stroke-width="5.5" stroke-linecap="round" stroke-linejoin="round">
    <path d="M23 43 C27 24 48 13 69 14 C88 15 97 36 92 66"/>
    <path d="M70 13 C71 9 74 7 77 7"/>
    <path d="M67 15 C56 19 46 27 38 39"/>
    <path d="M69 16 C67 26 66 36 65 46"/>
    <path d="M22 44 C36 41 58 48 78 58 C88 63 95 67 93 72 C90 77 75 75 59 68 C41 60 23 52 22 45"/>
    <path d="M49 52 C45 64 41 77 36 89"/>
  </g>
</svg>
